<svg version="1.1" xmlns="http://www.w3.org/2000/svg" viewBox="-1185.0388667484801 -1075.2 3644.23886674848 3017.1"><desc>Created with Snap</desc><defs></defs><g><rect x="-1185.0388667484801" y="-1075.2" width="3644.23886674848" height="3017.1" fill="#165a3f" style=""></rect><g transform="matrix(27.3865,0,0,27.3865,-1952.5625,-935.9921)"><g><g><path fill-rule="evenodd" clip-rule="evenodd" d="M46.792,70.256c-0.088,0.555,1.847-10.14,2.447-13.867    c1.03-3.449,1.696-7.597,3.112-11.527c0.092-0.258,0.186-0.517,0.242-0.783c0.361-1.703,1.039-3.257,2.01-4.712    c0.445-0.667,0.686-1.479,0.967-2.243c0.074-0.195-0.053-0.463-0.098-0.756c-0.17,0.123-0.254,0.153-0.289,0.213    c-2.123,3.559-4.256,7.111-6.34,10.693c-0.279,0.482-0.429,1.117-0.416,1.676c0.029,1.281-0.392,2.403-0.959,3.517    c-0.073-0.394-0.084-0.78-0.071-1.165c0.083-2.502,0.176-5.004,0.251-7.507c0.046-1.487,0.026-2.977,0.107-4.46    c0.091-1.678,0.263-3.352,0.397-5.028c0.136-1.676,0.25-3.354,0.406-5.028c0.336-3.61,1.592-6.911,3.415-10.018    c0.127-0.217,0.314-0.398,0.469-0.593c0.408,0.305,0.721,0.636,1.104,0.803c0.371,0.162,0.922,0.348,1.205,0.189    c1.066-0.597,2.246-0.641,3.383-0.896c1.301-0.293,2.174-1.046,2.455-2.379c0.096-0.451,0.234-0.949,0.127-1.368    c-0.088-0.342-0.51-0.599-0.783-0.892c0.143-0.32,0.311-0.632,0.426-0.961c0.588-1.708-0.217-3.004-1.984-3.345    c-0.787-0.15-1.543-0.464-2.229-0.679c0-0.547,0.043-0.942-0.01-1.325c-0.107-0.823-0.617-1.338-1.395-1.564    c-0.863-0.251-1.705-0.124-2.211,0.639c-0.619,0.939-1.098,1.973-1.619,2.976c-0.189,0.36-0.324,0.749-0.555,1.291    c-0.39-0.716-0.675-1.268-0.988-1.804c-0.309-0.528-0.342-1.25-1.134-1.681c-0.091,0.696-0.126,1.232-0.234,1.754    c-0.246,1.189-0.014,2.263,0.742,3.202c0.598,0.741,0.838,1.562,0.804,2.504c-0.038,1.019,0.445,1.797,1.242,2.399    c0.215,0.162,0.431,0.324,0.734,0.553c-0.416,0.813-0.798,1.621-1.23,2.398c-1.021,1.826-1.792,3.754-2.148,5.803    c-0.396,2.269-0.662,4.562-0.913,6.853c-0.213,1.944-0.365,3.895-0.469,5.848c-0.119,2.226-0.156,4.457-0.221,6.686    c-0.089,3.13-0.153,6.259-0.261,9.388c-0.034,1.013-0.177,2.019-0.26,3.028c-0.025,0.312-0.046,3.361-0.372,4.503    c-0.468-0.232-1.128-1.72-0.848-2.135c0.532-0.795,0.46-1.646,0.144-2.476c-0.305-0.8-1.272-6.574-1.992-7.469    c-0.295-0.364-1.012-4.983-1.562-6.02c-0.618-1.17-2.167-2.917-2.147-2.605c0.062,0.971,0.094,1.961,0.303,2.906    c0.717,3.244,1.308,6.508,1.856,9.785c0.496,2.962,0.749,5.978,1.697,8.858c0.16,0.483,0.916,2.58,1.733,3.721    C45.649,68.299,46.792,70.256,46.792,70.256z" fill="#00e6cf" style=""></path></g><path fill-rule="evenodd" clip-rule="evenodd" d="M45.812,67.32c0,0-0.384,21.609,1.023,26.107c0.174,0.557,0.62,0.442,0.853,0.404   c0.206-0.034,0.833-0.098,0.489-0.613c-0.979-1.468-1.276-8.188-1.468-13.337c-0.286-7.668,0.407-12.727,0.407-12.727L45.812,67.32   z" fill="#00e6cf" style=""></path></g><desc>Created with Snap</desc><defs></defs></g><g><g transform="matrix(0.5,0,0,-0.5,0,0)"><path d="M694 1348L694 627Q793 647 846 697Q899 747 924 816Q949 886 956 970Q964 1055 972 1146Q981 1238 1001 1330Q1021 1423 1071 1509Q1074 1516 1085 1526Q1096 1536 1114 1536Q1133 1536 1154 1531Q1176 1526 1194 1517Q1212 1509 1223 1498Q1235 1487 1235 1475Q1235 1460 1219 1452Q1187 1404 1168 1345Q1150 1287 1139 1223Q1128 1160 1120 1093Q1112 1026 1101 960Q1091 895 1074 832Q1057 770 1028 715Q999 661 953 617Q908 573 840 543Q912 504 959 449Q1007 394 1040 329Q1073 265 1096 194Q1120 124 1144 55Q1169 -14 1199 -79Q1229 -143 1276 -195Q1280 -200 1286 -203Q1293 -205 1299 -208Q1306 -210 1310 -214Q1315 -217 1315 -223Q1315 -238 1298 -257Q1281 -275 1257 -292Q1234 -308 1211 -319Q1188 -330 1176 -330Q1161 -330 1149 -317Q1106 -263 1077 -206Q1048 -148 1026 -89Q1005 -30 989 28Q973 87 956 141Q940 196 919 245Q899 294 869 334Q839 375 796 405Q754 436 694 453L694 -10Q694 -36 677 -47Q660 -57 637 -57Q619 -57 601 -52Q583 -47 568 -39Q554 -31 544 -21Q535 -10 535 2L535 1274Q466 1265 404 1235Q343 1205 297 1153Q252 1101 225 1027Q199 953 199 856Q199 794 212 744Q225 695 243 660Q261 626 279 607Q297 588 307 588Q316 588 324 592Q332 596 340 596Q356 596 356 571Q356 539 341 509Q327 480 305 461Q283 443 257 438Q231 433 209 449Q182 467 151 504Q121 541 95 593Q70 646 53 712Q37 778 37 856Q37 964 63 1049Q89 1135 132 1199Q176 1263 234 1308Q292 1353 356 1381Q420 1409 486 1421Q552 1434 612 1434Q628 1434 643 1427Q658 1421 669 1409Q680 1398 687 1382Q694 1366 694 1348ZM1407 985Q1382 985 1359 995Q1337 1005 1320 1022Q1304 1039 1294 1061Q1284 1084 1284 1110Q1284 1137 1294 1160Q1304 1183 1320 1199Q1337 1216 1359 1225Q1382 1235 1407 1235Q1434 1235 1457 1225Q1480 1216 1496 1199Q1513 1183 1522 1160Q1532 1137 1532 1110Q1532 1084 1522 1061Q1513 1039 1496 1022Q1480 1005 1457 995Q1434 985 1407 985ZM1454 692L1454 172Q1454 165 1455 149Q1456 134 1461 118Q1466 102 1477 90Q1488 78 1508 78Q1538 78 1560 100Q1583 122 1599 155Q1616 188 1627 226Q1638 265 1645 299Q1651 330 1663 344Q1676 358 1690 359Q1705 361 1719 352Q1734 343 1745 328Q1757 314 1762 296Q1768 278 1764 262Q1750 211 1727 155Q1705 99 1670 52Q1635 5 1586 -26Q1537 -57 1471 -57Q1430 -57 1398 -42Q1366 -26 1344 0Q1322 26 1310 61Q1299 96 1299 135L1299 682Q1299 711 1294 724Q1290 737 1290 748Q1290 763 1306 772Q1322 782 1344 782Q1395 782 1424 755Q1454 729 1454 692ZM2402 338Q2404 350 2415 358Q2427 366 2442 369Q2457 372 2473 369Q2490 366 2502 355Q2515 345 2520 326Q2526 308 2519 279Q2510 237 2489 200Q2469 164 2438 136Q2407 108 2365 92Q2323 76 2271 76Q2243 76 2218 79Q2194 82 2171 90Q2133 24 2073 -17Q2013 -57 1925 -57Q1847 -57 1791 -27Q1735 4 1698 56Q1661 109 1643 178Q1626 247 1626 324Q1626 437 1652 526Q1679 616 1714 678Q1749 741 1783 774Q1818 807 1835 807Q1855 807 1871 789Q1888 772 1895 748Q1903 725 1899 701Q1896 677 1876 664Q1864 645 1847 620Q1831 595 1816 557Q1802 520 1792 466Q1782 412 1782 336Q1782 271 1793 223Q1805 175 1825 142Q1846 110 1872 94Q1899 78 1929 78Q1973 78 2001 99Q2030 121 2050 156Q1978 218 1940 313Q1903 409 1903 520Q1903 568 1913 611Q1924 655 1944 688Q1965 721 1996 740Q2027 760 2068 760Q2104 760 2136 734Q2168 708 2192 662Q2216 616 2229 553Q2243 490 2243 416Q2243 359 2236 303Q2229 247 2214 195Q2225 191 2234 190Q2244 190 2255 190Q2288 190 2313 202Q2339 214 2357 234Q2375 254 2386 281Q2397 308 2402 338ZM2011 528Q2011 459 2032 397Q2054 335 2089 289Q2095 338 2095 383Q2095 435 2093 479Q2092 524 2086 556Q2081 588 2071 606Q2062 625 2046 625Q2011 625 2011 528ZM2519 281Q2511 249 2489 241Q2467 234 2445 243Q2424 252 2409 274Q2395 296 2401 322Q2416 390 2444 472Q2473 555 2501 637Q2486 660 2477 683Q2468 707 2468 733Q2468 759 2487 787Q2507 816 2534 840Q2562 864 2591 879Q2621 895 2642 895Q2679 895 2697 870Q2716 845 2716 803Q2716 780 2708 757Q2701 735 2692 715Q2683 696 2675 682Q2668 668 2667 664Q2703 600 2742 551Q2781 502 2813 454Q2846 406 2867 352Q2888 298 2888 225Q2888 207 2885 188Q2883 169 2878 152Q2914 159 2941 174Q2969 189 2989 208Q3010 228 3023 251Q3037 274 3046 299Q3057 328 3068 341Q3079 354 3093 354Q3106 354 3119 345Q3133 337 3143 324Q3154 311 3160 297Q3167 283 3167 272Q3167 257 3159 236Q3151 215 3137 193Q3124 171 3107 150Q3090 130 3072 115Q3024 76 2959 49Q2894 23 2798 16Q2761 -16 2710 -37Q2660 -57 2597 -57Q2565 -57 2531 -49Q2498 -41 2467 -29Q2437 -16 2412 -1Q2387 14 2372 29Q2334 65 2323 101Q2312 138 2317 167Q2323 196 2339 214Q2355 233 2372 233Q2382 233 2403 224Q2425 216 2453 202Q2481 189 2514 174Q2547 159 2580 145Q2613 132 2644 123Q2676 115 2702 115Q2719 135 2733 168Q2747 201 2747 240Q2747 288 2734 329Q2721 370 2700 405Q2679 440 2652 470Q2626 501 2599 528Q2575 469 2557 411Q2539 354 2519 281Z" fill="#ffffff" style=""></path></g></g><g transform="matrix(1,0,0,1,0,1212.7)"><g transform="matrix(0.5,0,0,-0.5,0,0)"><path d="M410 330L410 1073Q410 1102 405 1115Q401 1128 401 1139Q401 1154 417 1164Q433 1174 455 1174Q506 1174 537 1147Q569 1121 569 1083L569 324Q569 250 581 198Q593 146 617 113Q641 80 676 64Q711 49 756 49Q799 49 835 65Q872 81 899 109Q926 137 941 175Q956 213 956 258Q956 327 932 373Q908 419 869 447Q831 475 782 486Q734 498 686 498Q677 498 668 509Q659 521 653 538Q647 555 644 574Q641 594 643 611Q645 628 652 639Q660 651 676 651Q700 651 734 657Q768 663 805 678Q842 694 878 720Q914 746 943 786Q972 827 990 882Q1008 938 1008 1012Q1008 1070 988 1126Q969 1183 926 1227Q883 1272 816 1299Q749 1327 655 1327Q532 1327 444 1289Q356 1251 300 1187Q245 1123 219 1038Q193 954 193 860Q193 792 204 745Q216 699 230 669Q244 640 256 626Q268 612 270 610Q287 615 294 606Q301 597 301 582Q301 568 291 540Q282 512 266 487Q250 463 229 450Q208 438 186 455Q174 466 149 495Q124 524 99 572Q75 621 56 689Q37 758 37 848Q37 992 82 1108Q127 1225 208 1308Q290 1391 403 1436Q516 1481 653 1481Q769 1481 863 1449Q958 1418 1025 1358Q1092 1298 1128 1211Q1165 1125 1165 1016Q1165 932 1145 864Q1125 796 1089 742Q1054 688 1005 646Q957 605 901 575Q946 562 985 536Q1024 511 1053 472Q1082 433 1099 380Q1116 328 1116 262Q1116 185 1088 120Q1061 55 1013 8Q965 -39 899 -66Q834 -92 758 -92Q657 -92 590 -62Q523 -31 483 24Q443 80 426 157Q410 235 410 330ZM1825 -57Q1790 -57 1761 -46Q1733 -35 1711 -16Q1690 4 1676 30Q1662 57 1657 88Q1620 23 1570 -18Q1520 -59 1452 -59Q1401 -59 1360 -38Q1320 -17 1292 21Q1264 60 1249 114Q1235 169 1235 236Q1235 317 1246 399Q1258 481 1272 547Q1288 624 1309 696Q1314 709 1316 722Q1319 736 1328 747Q1337 758 1356 765Q1376 772 1417 772Q1455 772 1466 758Q1477 745 1474 727Q1472 709 1462 690Q1453 671 1450 659Q1436 602 1425 555Q1414 508 1406 460Q1399 413 1395 361Q1391 310 1391 246Q1391 162 1415 119Q1440 76 1485 76Q1516 76 1542 99Q1569 122 1590 160Q1612 199 1628 248Q1644 298 1653 352L1653 682Q1653 704 1649 717Q1646 730 1642 737Q1639 745 1635 749Q1632 754 1632 760Q1632 765 1638 769Q1644 773 1654 776Q1664 779 1675 780Q1687 782 1698 782Q1749 782 1778 755Q1808 729 1808 692L1808 172Q1808 165 1809 149Q1810 134 1815 118Q1820 102 1831 90Q1842 78 1862 78Q1893 78 1915 100Q1938 122 1954 155Q1971 188 1981 226Q1992 265 1999 299Q2005 331 2019 345Q2033 360 2048 360Q2060 360 2073 352Q2086 345 2096 333Q2107 321 2113 306Q2120 291 2120 276Q2120 274 2120 271Q2120 268 2118 262Q2104 211 2081 155Q2059 99 2024 52Q1989 5 1940 -26Q1891 -57 1825 -57ZM2007 33L2007 682Q2007 711 2002 724Q1998 737 1998 748Q1998 763 2014 772Q2030 782 2052 782Q2103 782 2132 755Q2162 729 2162 692L2162 600Q2183 643 2207 680Q2232 717 2260 744Q2289 772 2321 787Q2354 803 2392 803Q2443 803 2476 784Q2509 765 2528 735Q2547 705 2554 668Q2562 631 2562 596L2562 172Q2562 165 2563 149Q2564 134 2569 118Q2574 102 2584 90Q2595 78 2615 78Q2646 78 2668 100Q2691 122 2707 155Q2724 188 2734 226Q2745 265 2752 299Q2758 331 2772 345Q2786 360 2801 360Q2813 360 2826 352Q2839 345 2849 333Q2860 321 2866 306Q2873 291 2873 276Q2873 274 2873 271Q2873 268 2871 262Q2858 211 2835 155Q2813 99 2777 52Q2742 5 2693 -26Q2644 -57 2578 -57Q2537 -57 2505 -42Q2474 -26 2451 0Q2429 26 2417 61Q2406 96 2406 135L2406 551Q2406 575 2405 596Q2404 617 2399 633Q2395 649 2386 658Q2378 668 2363 668Q2341 668 2309 638Q2277 608 2246 560Q2215 512 2191 451Q2168 391 2162 330L2162 31Q2162 16 2161 0Q2161 -15 2155 -28Q2150 -40 2138 -49Q2127 -57 2105 -57Q2090 -57 2072 -54Q2055 -50 2040 -41Q2026 -31 2016 -14Q2007 4 2007 33ZM2869 -608Q2869 -530 2889 -470Q2910 -410 2945 -360Q2980 -310 3026 -267Q3072 -223 3123 -178L3123 37Q3092 6 3050 -16Q3009 -37 2955 -37Q2895 -37 2849 -13Q2804 11 2773 52Q2742 94 2726 150Q2711 207 2711 272Q2711 400 2752 502Q2793 604 2861 675Q2929 747 3016 785Q3104 823 3198 823Q3240 823 3266 800Q3292 778 3292 737Q3292 711 3286 700Q3281 690 3266 690Q3252 690 3237 692Q3222 694 3206 694Q3148 694 3088 668Q3028 643 2979 590Q2931 538 2900 457Q2869 377 2869 266Q2869 186 2900 142Q2931 98 2985 98Q3016 98 3039 116Q3062 135 3079 163Q3096 191 3106 224Q3117 258 3123 289L3123 520Q3123 549 3118 562Q3114 575 3114 586Q3114 601 3130 611Q3146 621 3168 621Q3219 621 3248 594Q3278 568 3278 530L3278 -27Q3334 35 3380 114Q3427 193 3458 299Q3468 331 3480 345Q3492 360 3508 360Q3520 360 3532 352Q3545 345 3555 333Q3566 321 3572 306Q3579 291 3579 276Q3579 274 3579 268Q3579 262 3577 256Q3551 167 3516 98Q3482 30 3443 -24Q3404 -78 3362 -121Q3320 -163 3278 -199L3278 -553Q3278 -634 3259 -690Q3241 -745 3211 -780Q3181 -814 3142 -829Q3104 -844 3065 -844Q3022 -844 2986 -826Q2950 -807 2924 -775Q2898 -743 2883 -700Q2869 -657 2869 -608ZM3065 -715Q3090 -715 3102 -695Q3114 -675 3118 -649Q3123 -622 3123 -595Q3123 -568 3123 -553L3123 -334Q3073 -384 3042 -447Q3012 -510 3012 -602Q3012 -650 3026 -683Q3040 -715 3065 -715ZM4046 78Q4077 78 4099 100Q4122 122 4138 155Q4155 188 4165 226Q4176 265 4183 299Q4190 331 4203 345Q4217 360 4233 360Q4245 360 4257 352Q4270 345 4280 333Q4291 321 4297 306Q4304 291 4304 276Q4304 274 4304 271Q4304 268 4302 262Q4289 211 4266 155Q4244 99 4209 52Q4174 5 4124 -26Q4075 -57 4009 -57Q3955 -57 3915 -34Q3875 -11 3852 27Q3821 -8 3777 -33Q3734 -57 3676 -57Q3616 -57 3570 -33Q3525 -9 3494 32Q3463 74 3447 130Q3432 187 3432 252Q3432 380 3473 482Q3514 584 3582 655Q3650 727 3737 765Q3825 803 3919 803Q3961 803 3987 780Q4013 757 4013 717Q4013 691 4007 680Q4002 670 3987 670Q3973 670 3958 672Q3943 674 3927 674Q3869 674 3809 648Q3749 623 3700 570Q3652 518 3621 437Q3590 357 3590 246Q3590 165 3621 121Q3652 78 3706 78Q3748 78 3776 109Q3804 141 3821 184L3821 500Q3821 515 3819 525Q3818 535 3816 542Q3815 549 3814 554Q3813 560 3813 565Q3813 581 3828 590Q3844 600 3866 600Q3917 600 3947 573Q3977 547 3977 510L3977 172Q3977 155 3981 138Q3985 122 3993 108Q4001 95 4014 86Q4028 78 4046 78Z" fill="#ffffff" style=""></path></g></g></g></svg>